PathFileType	4	(X/Y/Z)	/Users/niels/Desktop/University/Third Semester/Perception and Action/Exam/Gymnastics Motion Tracking/Code for Gym Tracking/Analyzed Data/Webcam_Backflip/id6_2_trajectory_Sports2D/id6_2_trajectory_Sports2D_px_person00.trc
DataRate	CameraRate	NumFrames	NumMarkers	Units	OrigDataRate	OrigDataStartFrame	OrigNumFrames
29.714285714285715	29.714285714285715	14	22	m	29.714285714285715	52	105
Frame#	Time	Hip			RHip			RKnee			RAnkle			RBigToe			RSmallToe			RHeel			LHip			LKnee			LAnkle			LBigToe			LSmallToe			LHeel			Neck			Head			Nose			RShoulder			RElbow			RWrist			LShoulder			LElbow			LWrist		
		X1	Y1	Z1	X2	Y2	Z2	X3	Y3	Z3	X4	Y4	Z4	X5	Y5	Z5	X6	Y6	Z6	X7	Y7	Z7	X8	Y8	Z8	X9	Y9	Z9	X10	Y10	Z10	X11	Y11	Z11	X12	Y12	Z12	X13	Y13	Z13	X14	Y14	Z14	X15	Y15	Z15	X16	Y16	Z16	X17	Y17	Z17	X18	Y18	Z18	X19	Y19	Z19	X20	Y20	Z20	X21	Y21	Z21	X22	Y22	Z22
52	1.75	0.9375359649094801	-1.0896923838494499	0.0	0.9157626346623066	-1.1029021436885118	0.0	1.1665078833470197	-1.0658530108487296	0.0	1.1522421662012734	-1.0672006151676179	0.0			0.0			0.0			0.0	0.9742818679706463	-1.1021356575362562	0.0	1.1259334567970747	-1.0605995025274046	0.0	1.161098837852478	-1.0638793634176253	0.0			0.0			0.0			0.0	0.9759058120007209	-0.886034108865601	0.0	1.029228284603478	-0.7680209382719544	0.0	1.0461692382555483	-0.8444204528235079	0.0	0.9410042444684612	-0.9271964457939094	0.0	0.9807840433837487	-1.0655930227801003	0.0	1.0722136714114678	-1.0702738474881148	0.0	0.987066607206769	-0.9238047049859462	0.0	1.0169124072673896	-1.052038490085919	0.0	1.0936673115472286	-1.0681289557645761	0.0
53	1.783653846153846	0.9382150796362647	-1.0880403539186212	0.0	0.9114923890700419	-1.099929102082229	0.0	1.167044447600204	-1.064400397461765	0.0	1.1522421662012734	-1.0672006151676179	0.0			0.0			0.0			0.0	0.9759698683358866	-1.100411902525753	0.0	1.1255879127621957	-1.0609605776511564	0.0	1.161098837852478	-1.0638793634176253	0.0			0.0			0.0			0.0	0.9787170717336363	-0.8876258265180946	0.0	1.0343718388703733	-0.7704680074817929	0.0	1.0500207070165681	-0.8466326268185748	0.0	0.9366849908872629	-0.9310313989322916	0.0	0.9340348579006122	-1.0777891000583235	0.0	1.002814458384826	-1.081953236159447	0.0	0.9917972641067347	-0.9283540561866376	0.0	1.000328063303322	-1.0653586777707662	0.0	1.0743702396216477	-1.0720339424533176	0.0
54	1.8173076923076923	0.9392358401411474	-1.087532012411223	0.0	0.9069975605825459	-1.096226527795216	0.0	1.1673418497420405	-1.063595256012036	0.0	1.1522421662012734	-1.0672006151676179	0.0			0.0			0.0			0.0	0.9783295771989324	-1.0980331542361503	0.0	1.1254719141466423	-1.0610826107108626	0.0	1.161098837852478	-1.0638793634176253	0.0			0.0			0.0			0.0	0.9813723555374206	-0.8887357948731248	0.0	1.038851153734438	-0.7722833585676652	0.0	1.0535008869650946	-0.848176007632601	0.0	0.9306603745460624	-0.932956551191831	0.0	0.8904177645650156	-1.080736647200496	0.0	0.932604686892846	-1.0864873108634432	0.0	0.9962736283184812	-0.9335858397422648	0.0	0.9902225298579781	-1.071772618217454	0.0	1.066655764217098	-1.0740425087739995	0.0
55	1.8509615384615383	0.9402043459234662	-1.0882047717586947	0.0	0.9021307621723706	-1.092671725574647	0.0	1.1674602802958318	-1.0632746361627012	0.0	1.1522421662012734	-1.0672006151676179	0.0			0.0			0.0			0.0	0.9811248612011847	-1.0958231115956576	0.0	1.1254818793591341	-1.0610732488355443	0.0	1.161098837852478	-1.0638793634176253	0.0			0.0			0.0			0.0	0.9837129763152941	-0.8891844723651005	0.0	1.042360237891356	-0.7734403393709972	0.0	1.056154608622644	-0.8487924343874192	0.0	0.923404898354054	-0.9321394775264129	0.0	0.8519592665538914	-1.0747268424085843	0.0	0.8646336636641518	-1.0864952760746058	0.0	1.0012814126659955	-0.9398121932570052	0.0	0.9871247474686459	-1.0743517825753928	0.0	1.0689682637881297	-1.074439596813487	0.0
56	1.8846153846153846	0.9406640454917392	-1.0899593108627437	0.0	0.8967180938212289	-1.0900890587943193	0.0	1.1674728764997166	-1.0632405376227572	0.0	1.1522421662012734	-1.0672006151676179	0.0			0.0			0.0			0.0	0.9839973125092817	-1.0945578924953054	0.0	1.125540412175756	-1.0610129274226854	0.0	1.161098837852478	-1.0638793634176253	0.0			0.0			0.0			0.0	0.9857209695619232	-0.8888958902977887	0.0	1.044978357100328	-0.7741301849019572	0.0	1.057636212391384	-0.8485028605543967	0.0	0.9157826124868712	-0.9279609399209777	0.0	0.8190721036809897	-1.0597682055118431	0.0	0.8013388047135152	-1.082904288576998	0.0	1.0073660077896145	-0.9468984016664829	0.0	0.9901919018825854	-1.0754397207243278	0.0	1.0779900416495054	-1.0737736489003828	0.0
57	1.9182692307692306	0.940243028305751	-1.0926466218288762	0.0	0.8906297150778226	-1.0891317397414924	0.0	1.167438386001547	-1.0633339160917312	0.0	1.1522421662012734	-1.0672006151676179	0.0			0.0			0.0			0.0	0.9866366502992215	-1.0948383761637124	0.0	1.1256013691947857	-1.0609494282756189	0.0	1.161098837852478	-1.0638793634176253	0.0			0.0			0.0			0.0	0.987464141914154	-0.8879859353670783	0.0	1.0469973468540625	-0.7746260352887873	0.0	1.0578434354765653	-0.8475516124797803	0.0	0.9086744250944605	-0.9206348058972829	0.0	0.7923795759408618	-1.0368553465111077	0.0	0.7451014823182383	-1.0752948516781464	0.0	1.014557247067224	-0.9542538403254676	0.0	0.9978903614353977	-1.076551736546678	0.0	1.0905468037196338	-1.072543133282186	0.0
58	1.9519230769230769	0.9388835881027073	-1.09596865096461	0.0	0.8839428042659729	-1.0900072624767476	0.0	1.1673937648485102	-1.0634547218818093	0.0	1.1522421662012734	-1.0672006151676179	0.0			0.0			0.0			0.0	0.9889332687495723	-1.0968113654073035	0.0	1.1256436057653816	-1.0609043046414892	0.0	1.161098837852478	-1.0638793634176253	0.0			0.0			0.0			0.0	0.9889815220414537	-0.8867220353967855	0.0	1.048718563889863	-0.7751225130800382	0.0	1.056968174189365	-0.8462516892186364	0.0	0.9026126977135558	-0.9112507761915958	0.0	0.7723391191380222	-1.0089021279001946	0.0	0.6981462895290508	-1.0628532670865234	0.0	1.0223621298940295	-0.961056064645424	0.0	1.008401386338277	-1.0783097152563388	0.0	1.1043172142230107	-1.0710749581072183	0.0
59	1.985576923076923	0.937053827857994	-1.0992842485594125	0.0	0.8771149414482489	-1.0921213543595634	0.0	1.167357001514397	-1.0635542538904337	0.0	1.1522421662012734	-1.0672006151676179	0.0			0.0			0.0			0.0	0.991072141741423	-1.0998177438060817	0.0	1.1256620899314023	-1.060882179576931	0.0	1.161098837852478	-1.0638793634176253	0.0			0.0			0.0			0.0	0.9902545503426273	-0.885395591387016	0.0	1.0502950817666536	-0.77561830156109	0.0	1.0554302796434032	-0.844856018406979	0.0	0.8977006775977986	-0.9013055855643083	0.0	0.7583358681577699	-0.9800640205114683	0.0	0.6619731846206695	-1.0453958496124334	0.0	1.0300698960490575	-0.9666409727079157	0.0	1.0202826414701265	-1.080338806557436	0.0	1.1178437910760266	-1.0695175834680275	0.0
60	2.019230769230769	0.9355695436029505	-1.1016664409196202	0.0	0.8708926870560858	-1.0941797974750669	0.0	1.1673334002121651	-1.0636181483492761	0.0	1.1522421662012734	-1.0672006151676179	0.0			0.0			0.0			0.0	0.9933613829490073	-1.102514278030647	0.0	1.1256608971408824	-1.06087829647086	0.0	1.161098837852478	-1.0638793634176253	0.0			0.0			0.0			0.0	0.9912465034117484	-0.8842194937467285	0.0	1.0516835039423387	-0.7758604159377369	0.0	1.0537305293282428	-0.8435388171310613	0.0	0.893769124265395	-0.8921763259226428	0.0	0.7490118636490566	-0.9540145318569332	0.0	0.6368209569273436	-1.02392034356565	0.0	1.0370968727201972	-0.9707850556057656	0.0	1.0328120586249978	-1.081727032479493	0.0	1.130253580705115	-1.067891784006691	0.0
61	2.0528846153846154	0.9349686389305687	-1.1025457337188498	0.0	0.8658629439158614	-1.0951319336655574	0.0	1.1673215968933126	-1.0636500915684175	0.0	1.1522421662012734	-1.0672006151676179	0.0			0.0			0.0			0.0	0.9958102896991616	-1.1038584776746336	0.0	1.1256495909193132	-1.060882840561739	0.0	1.161098837852478	-1.0638793634176253	0.0			0.0			0.0			0.0	0.9919421060096221	-0.8833088957499883	0.0	1.0527443175867417	-0.7755031227830531	0.0	1.0522937362347828	-0.842433635114569	0.0	0.8906232329850086	-0.8847838484250684	0.0	0.7430052234402887	-0.9328380562985245	0.0	0.6215325708113976	-1.0005342609405863	0.0	1.0431083307161186	-0.9736607080082063	0.0	1.0454406274237908	-1.0819288426518718	0.0	1.140970291440057	-1.0661684026834313	0.0
62	2.0865384615384612	0.9350819095004299	-1.1023393970837694	0.0	0.8620845025062708	-1.0950839136366728	0.0	1.1673178419573254	-1.0636602261746657	0.0	1.1522421662012734	-1.0672006151676179	0.0			0.0			0.0			0.0	0.9979518737107164	-1.1040337175710122	0.0	1.1256425899034275	-1.0608824892647557	0.0	1.161098837852478	-1.0638793634176253	0.0			0.0			0.0			0.0	0.992381541850143	-0.8827252284187551	0.0	1.0534173725304923	-0.7744499654997137	0.0	1.0513462357130092	-0.841641076776641	0.0	0.8882258871353529	-0.8794813205209165	0.0	0.739254184341698	-0.9170907957666358	0.0	0.6139326699547812	-0.9778722381968485	0.0	1.0479839105230102	-0.9755878944720804	0.0	1.0572171324383295	-1.081245487147345	0.0	1.1495972279229765	-1.0643625753148103	0.0
63	2.1201923076923075	0.9353208335862653	-1.1020344704713807	0.0	0.8592216840009526	-1.0949330960320083	0.0	1.1673184125822125	-1.0636586230731346	0.0	1.1522421662012734	-1.0672006151676179	0.0			0.0			0.0			0.0	0.9992115837069606	-1.1040432554861133	0.0	1.1256598903882553	-1.060860785570378	0.0	1.161098837852478	-1.0638793634176253	0.0			0.0			0.0			0.0	0.9926601455201179	-0.8824988814732104	0.0	1.0537813869459067	-0.7729783879186392	0.0	1.050878634119438	-0.8412071703195505	0.0	0.8866416248162343	-0.8761503490107487	0.0	0.737013075594091	-0.9063681028650422	0.0	0.6115024304453974	-0.958303861813817	0.0	1.051793591373793	-0.97689799443471	0.0	1.067044196692176	-1.0804410320324835	0.0	1.1560298358497816	-1.0626363154541172	0.0
64	2.1538461538461537	0.9353042958022527	-1.1022468939257115	0.0	0.8569579713377842	-1.095306590707238	0.0	1.1673206032470484	-1.063652605991959	0.0	1.1522421662012734	-1.0672006151676179	0.0			0.0			0.0			0.0	0.9994102882442487	-1.1046166122242373	0.0	1.1257265377404022	-1.0607996512142244	0.0	1.161098837852478	-1.0638793634176253	0.0			0.0			0.0			0.0	0.9928854359166674	-0.8826025421617589	0.0	1.053948959698787	-0.7715113436839285	0.0	1.050726672060056	-0.8411016761404755	0.0	0.8858268063290474	-0.8744012198405184	0.0	0.7357949039017337	-0.8998461737800533	0.0	0.6119514586505213	-0.9433888956962051	0.0	1.0547458023220169	-0.9778995678646648	0.0	1.0743311322921516	-1.0800859999208225	0.0	1.1606033848306931	-1.0613024636306438	0.0
65	2.1875	0.9350797445025083	-1.10300187934562	0.0	0.855195682786862	-1.0962407230905693	0.0	1.1673228636726873	-1.0636463883902874	0.0	1.1522421662012734	-1.0672006151676179	0.0			0.0			0.0			0.0	0.9988383500307001	-1.1058558333110233	0.0	1.12586736665886	-1.060684808611078	0.0	1.161098837852478	-1.0638793634176253	0.0			0.0			0.0			0.0	0.9931453603670919	-0.8829470139389436	0.0	1.0539715877891782	-0.7703430296163308	0.0	1.050716122180141	-0.8412184660882627	0.0	0.8855221333468987	-0.8737638565975753	0.0	0.7352613829871459	-0.8966575803628546	0.0	0.6135295587697464	-0.9337611128158456	0.0	1.0570612395091827	-0.9788100055829057	0.0	1.0791739521524848	-1.0803708375848162	0.0	1.1639388903749481	-1.060599916686769	0.0
